<svg xmlns="http://www.w3.org/2000/svg" xmlns:xlink="http://www.w3.org/1999/xlink" width="135" zoomAndPan="magnify" viewBox="0 0 101.25 30.000001" height="40" preserveAspectRatio="xMidYMid meet" version="1.0"><defs><g/></defs><g fill="#ffffff" fill-opacity="1"><g transform="translate(5.947859, 22.437989)"><g><path d="M 19.8125 -15.71875 L 19.25 -15.71875 C 19.101562 -17.1875 18.640625 -18.289062 17.859375 -19.03125 C 17.085938 -19.78125 16.207031 -20.15625 15.21875 -20.15625 L 12.796875 -20.15625 L 12.796875 -3.34375 C 12.796875 -2.582031 12.898438 -2.003906 13.109375 -1.609375 C 13.316406 -1.210938 13.632812 -0.941406 14.0625 -0.796875 C 14.5 -0.660156 15.113281 -0.582031 15.90625 -0.5625 L 15.90625 0 L 4.75 0 L 4.75 -0.5625 C 5.53125 -0.5625 6.128906 -0.617188 6.546875 -0.734375 C 6.972656 -0.847656 7.296875 -1.097656 7.515625 -1.484375 C 7.734375 -1.878906 7.84375 -2.476562 7.84375 -3.28125 L 7.84375 -20.15625 L 5.171875 -20.15625 C 4.242188 -20.15625 3.414062 -19.742188 2.6875 -18.921875 C 1.96875 -18.109375 1.535156 -17.039062 1.390625 -15.71875 L 0.84375 -15.71875 L 0.84375 -21.296875 L 19.8125 -21.296875 Z M 19.8125 -15.71875 "/></g></g></g><g fill="#ffffff" fill-opacity="1"><g transform="translate(26.617145, 22.437989)"><g><path d="M 9.609375 -14.71875 C 10.109375 -14.71875 10.507812 -14.523438 10.8125 -14.140625 C 11.125 -13.765625 11.28125 -13.273438 11.28125 -12.671875 C 11.28125 -12.035156 11.125 -11.519531 10.8125 -11.125 C 10.507812 -10.738281 10.085938 -10.546875 9.546875 -10.546875 C 9.296875 -10.546875 9.078125 -10.59375 8.890625 -10.6875 C 8.710938 -10.789062 8.488281 -10.9375 8.21875 -11.125 C 7.820312 -11.394531 7.53125 -11.53125 7.34375 -11.53125 C 7.007812 -11.53125 6.726562 -11.257812 6.5 -10.71875 C 6.28125 -10.1875 6.171875 -9.578125 6.171875 -8.890625 L 6.171875 -2.453125 C 6.171875 -1.765625 6.300781 -1.273438 6.5625 -0.984375 C 6.832031 -0.703125 7.320312 -0.5625 8.03125 -0.5625 L 8.03125 0 L 0.34375 0 L 0.34375 -0.5625 C 1.394531 -0.5625 1.921875 -1.179688 1.921875 -2.421875 L 1.921875 -11.96875 C 1.921875 -13.1875 1.394531 -13.804688 0.34375 -13.828125 L 0.34375 -14.390625 L 6.171875 -14.390625 L 6.171875 -11.8125 L 6.234375 -11.8125 C 7.203125 -13.75 8.328125 -14.71875 9.609375 -14.71875 Z M 9.609375 -14.71875 "/></g></g></g><g fill="#ffffff" fill-opacity="1"><g transform="translate(38.547695, 22.437989)"><g><path d="M 4.375 -21.765625 C 5.03125 -21.765625 5.59375 -21.53125 6.0625 -21.0625 C 6.53125 -20.59375 6.765625 -20.03125 6.765625 -19.375 C 6.765625 -18.71875 6.53125 -18.148438 6.0625 -17.671875 C 5.59375 -17.191406 5.03125 -16.953125 4.375 -16.953125 C 3.707031 -16.953125 3.132812 -17.191406 2.65625 -17.671875 C 2.1875 -18.148438 1.953125 -18.71875 1.953125 -19.375 C 1.953125 -20.03125 2.1875 -20.59375 2.65625 -21.0625 C 3.132812 -21.53125 3.707031 -21.765625 4.375 -21.765625 Z M 6.421875 -2.359375 C 6.421875 -1.179688 6.9375 -0.582031 7.96875 -0.5625 L 7.96875 0 L 0.375 0 L 0.375 -0.5625 C 1.007812 -0.5625 1.46875 -0.703125 1.75 -0.984375 C 2.03125 -1.273438 2.171875 -1.785156 2.171875 -2.515625 L 2.171875 -11.90625 C 2.171875 -12.582031 2.035156 -13.070312 1.765625 -13.375 C 1.492188 -13.675781 1.03125 -13.828125 0.375 -13.828125 L 0.375 -14.390625 L 6.421875 -14.390625 Z M 6.421875 -2.359375 "/></g></g></g><g fill="#ffffff" fill-opacity="1"><g transform="translate(46.94556, 22.437989)"><g><path d="M 6.515625 -2.078125 C 6.515625 -1.554688 6.632812 -1.171875 6.875 -0.921875 C 7.125 -0.679688 7.519531 -0.5625 8.0625 -0.5625 L 8.0625 0 L 0.375 0 L 0.375 -0.5625 C 1.007812 -0.5625 1.484375 -0.695312 1.796875 -0.96875 C 2.109375 -1.25 2.265625 -1.679688 2.265625 -2.265625 L 2.265625 -18.84375 C 2.265625 -19.550781 2.125 -20.035156 1.84375 -20.296875 C 1.5625 -20.566406 1.070312 -20.710938 0.375 -20.734375 L 0.375 -21.296875 L 6.515625 -21.296875 Z M 6.515625 -2.078125 "/></g></g></g><g fill="#ffffff" fill-opacity="1"><g transform="translate(55.343424, 22.437989)"><g><path d="M 7.6875 -14.71875 C 8.945312 -14.71875 10.097656 -14.414062 11.140625 -13.8125 C 12.179688 -13.21875 13.015625 -12.347656 13.640625 -11.203125 C 14.273438 -10.054688 14.59375 -8.6875 14.59375 -7.09375 C 14.59375 -5.40625 14.242188 -3.992188 13.546875 -2.859375 C 12.847656 -1.734375 11.972656 -0.898438 10.921875 -0.359375 C 9.878906 0.171875 8.84375 0.4375 7.8125 0.4375 C 6.675781 0.4375 5.570312 0.144531 4.5 -0.4375 C 3.4375 -1.03125 2.570312 -1.898438 1.90625 -3.046875 C 1.238281 -4.203125 0.90625 -5.582031 0.90625 -7.1875 C 0.90625 -8.632812 1.191406 -9.925781 1.765625 -11.0625 C 2.347656 -12.195312 3.15625 -13.085938 4.1875 -13.734375 C 5.21875 -14.390625 6.382812 -14.71875 7.6875 -14.71875 Z M 5.359375 -7.8125 C 5.359375 -5.945312 5.421875 -4.515625 5.546875 -3.515625 C 5.671875 -2.515625 5.90625 -1.785156 6.25 -1.328125 C 6.59375 -0.878906 7.09375 -0.65625 7.75 -0.65625 C 8.351562 -0.65625 8.828125 -0.835938 9.171875 -1.203125 C 9.523438 -1.578125 9.773438 -2.179688 9.921875 -3.015625 C 10.066406 -3.859375 10.140625 -5.003906 10.140625 -6.453125 C 10.140625 -8.304688 10.085938 -9.722656 9.984375 -10.703125 C 9.878906 -11.691406 9.648438 -12.425781 9.296875 -12.90625 C 8.941406 -13.394531 8.40625 -13.640625 7.6875 -13.640625 C 6.78125 -13.640625 6.164062 -13.144531 5.84375 -12.15625 C 5.519531 -11.175781 5.359375 -9.726562 5.359375 -7.8125 Z M 5.359375 -7.8125 "/></g></g></g><g fill="#ffffff" fill-opacity="1"><g transform="translate(70.837637, 22.437989)"><g><path d="M 6.578125 -7.125 L 9.515625 -10.546875 C 10.054688 -11.160156 10.398438 -11.613281 10.546875 -11.90625 C 10.703125 -12.195312 10.78125 -12.472656 10.78125 -12.734375 C 10.78125 -13.128906 10.644531 -13.410156 10.375 -13.578125 C 10.113281 -13.742188 9.703125 -13.828125 9.140625 -13.828125 L 9.140625 -14.390625 L 15.34375 -14.390625 L 15.34375 -13.828125 C 14.726562 -13.742188 14.179688 -13.566406 13.703125 -13.296875 C 13.222656 -13.023438 12.734375 -12.628906 12.234375 -12.109375 C 11.742188 -11.597656 10.960938 -10.722656 9.890625 -9.484375 L 13.734375 -3.59375 C 14.453125 -2.476562 15.023438 -1.695312 15.453125 -1.25 C 15.878906 -0.8125 16.273438 -0.582031 16.640625 -0.5625 L 16.640625 0 L 9.515625 0 L 9.515625 -0.5625 C 9.847656 -0.601562 10.082031 -0.664062 10.21875 -0.75 C 10.351562 -0.832031 10.421875 -0.960938 10.421875 -1.140625 C 10.421875 -1.328125 10.285156 -1.648438 10.015625 -2.109375 L 7.25 -6.453125 L 6.578125 -5.671875 L 6.578125 -2.421875 C 6.578125 -1.710938 6.707031 -1.226562 6.96875 -0.96875 C 7.238281 -0.71875 7.6875 -0.582031 8.3125 -0.5625 L 8.3125 0 L 0.4375 0 L 0.4375 -0.5625 C 1.195312 -0.582031 1.703125 -0.71875 1.953125 -0.96875 C 2.203125 -1.226562 2.328125 -1.734375 2.328125 -2.484375 L 2.328125 -18.78125 C 2.328125 -19.507812 2.1875 -20.015625 1.90625 -20.296875 C 1.625 -20.585938 1.132812 -20.734375 0.4375 -20.734375 L 0.4375 -21.296875 L 6.578125 -21.296875 Z M 6.578125 -7.125 "/></g></g></g><g fill="#ffffff" fill-opacity="1"><g transform="translate(87.943246, 22.437989)"><g><path d="M 4.21875 -4.5625 C 4.894531 -4.5625 5.476562 -4.316406 5.96875 -3.828125 C 6.457031 -3.335938 6.703125 -2.753906 6.703125 -2.078125 C 6.703125 -1.390625 6.457031 -0.796875 5.96875 -0.296875 C 5.476562 0.191406 4.894531 0.4375 4.21875 0.4375 C 3.53125 0.4375 2.9375 0.191406 2.4375 -0.296875 C 1.945312 -0.796875 1.703125 -1.390625 1.703125 -2.078125 C 1.703125 -2.753906 1.945312 -3.335938 2.4375 -3.828125 C 2.9375 -4.316406 3.53125 -4.5625 4.21875 -4.5625 Z M 4.21875 -4.5625 "/></g></g></g></svg>